<?xml version="1.0" encoding="utf-8"?>
<!-- Generator: Adobe Illustrator 25.3.1, SVG Export Plug-In . SVG Version: 6.00 Build 0)  -->
<svg version="1.1" id="Layer_1" xmlns="http://www.w3.org/2000/svg" xmlns:xlink="http://www.w3.org/1999/xlink" x="0px" y="0px"
	 viewBox="0 0 595.28 841.89" style="enable-background:new 0 0 595.28 841.89;" xml:space="preserve">
<style type="text/css">
	.st0{fill:#EBE8CE;}
	.st1{fill:#F4F3E5;}
	.st2{fill:#3AB694;}
	.st3{fill:#9FE7AE;}
	.st4{fill:#FECE56;}
	.st5{fill:#9FE6AE;}
	.st6{fill:#CDE8C2;}
	.st7{fill:#A0E7AE;}
	.st8{fill:#A1E6AF;}
	.st9{fill:#A0E7AF;}
	.st10{fill:#3BB795;}
	.st11{fill:#9FE6AF;}
	.st12{fill:#68C3A3;}
	.st13{fill:#A1E7AF;}
	.st14{fill:#9DE5AE;}
	.st15{fill:#ACD7BA;}
	.st16{fill:#A4E5B1;}
	.st17{fill:#72C6A7;}
	.st18{fill:#B8DABE;}
	.st19{fill:#9CE4AE;}
	.st20{fill:#9BE0AF;}
	.st21{fill:#C2E4BE;}
	.st22{fill:#99E3AD;}
	.st23{fill:#96D8B0;}
	.st24{fill:#A3E7B0;}
	.st25{fill:#93DEAC;}
	.st26{fill:#9EE1B0;}
	.st27{fill:#DAE4C9;}
	.st28{fill:#BCDBBF;}
	.st29{fill:#66C3A3;}
	.st30{fill:#7AC8A9;}
	.st31{fill:#63C2A2;}
	.st32{fill:#EBE9CF;}
	.st33{fill:#84DAA7;}
	.st34{fill:#9EE6AE;}
	.st35{fill:#9BE5AD;}
	.st36{fill:#58C49C;}
	.st37{fill:#54C39B;}
	.st38{fill:#57C49C;}
	.st39{fill:#C1DDC1;}
	.st40{fill:#76D2A4;}
	.st41{fill:#ECE9CF;}
	.st42{fill:#5EC79D;}
</style>
<g>
	<path class="st0" d="M396.25,278.17c3.21,6.26,5.82,12.76,7.92,19.47c1.53,4.88,2.71,9.85,3.59,14.89
		c0.62,3.51,1.15,7.04,1.42,10.61c0.16,2.14,0.24,4.28,0.4,6.41c0.2,2.57,0.19,5.13,0.11,7.68c-0.11,3.51-0.32,7.01-0.69,10.51
		c-0.7,6.55-1.85,13.01-3.55,19.37c-1.63,6.09-3.75,12.02-6.3,17.81c-3.31,7.54-7.34,14.66-12.07,21.39
		c-2.48,3.53-5.14,6.92-8,10.16c-2.35,2.67-4.69,5.35-7.28,7.78c-2.79,2.63-5.66,5.17-8.64,7.59c-4.38,3.57-8.99,6.77-13.82,9.68
		c-4.49,2.71-9.14,5.13-13.94,7.26c-4.1,1.82-8.3,3.38-12.55,4.79c-5.13,1.71-10.38,2.97-15.7,3.9c-4.33,0.76-8.69,1.34-13.09,1.63
		c-4.42,0.29-8.83,0.48-13.24,0.31c-4.14-0.16-8.27-0.49-12.39-1.05c-4.15-0.56-8.25-1.31-12.32-2.23
		c-5.24-1.19-10.36-2.82-15.4-4.71c-5.05-1.9-9.93-4.17-14.68-6.7c-6.02-3.2-11.74-6.9-17.15-11.08
		c-5.03-3.89-9.75-8.09-14.14-12.68c-2.58-2.7-5.02-5.54-7.38-8.44c-4.01-4.93-7.54-10.17-10.73-15.65
		c-2.35-4.04-4.46-8.22-6.3-12.53c-1.58-3.68-3-7.42-4.24-11.22c-1.69-5.17-3.05-10.43-4-15.78c-0.63-3.57-1.08-7.18-1.47-10.8
		c-0.59-5.5-0.56-11-0.5-16.5c0.04-3.09,0.37-6.17,0.71-9.25c0.42-3.84,1.01-7.64,1.77-11.43c1.28-6.41,3.14-12.65,5.44-18.77
		c1.74-4.63,3.73-9.14,6.01-13.51c2.4-4.6,5.08-9.03,8.02-13.31c2.16-3.13,4.47-6.15,6.88-9.09c3.33-4.07,7.01-7.84,10.84-11.44
		c4.76-4.47,9.87-8.53,15.29-12.16c3.43-2.29,6.93-4.48,10.59-6.42c5.87-3.11,11.91-5.81,18.18-8c5.83-2.03,11.78-3.62,17.85-4.76
		c3.7-0.69,7.42-1.21,11.17-1.55c2.07-0.19,4.15-0.22,6.21-0.41c2.66-0.24,5.32-0.17,7.97-0.13c4.31,0.06,8.6,0.4,12.89,0.89
		c4.96,0.56,9.84,1.47,14.68,2.62c6.27,1.49,12.36,3.55,18.3,6.04c6.81,2.85,13.34,6.24,19.53,10.28c4.45,2.9,8.75,6.01,12.81,9.42
		c3.61,3.03,7.06,6.24,10.28,9.68c4.35,4.65,8.3,9.63,12.02,14.79c1.93,2.96,3.86,5.93,5.64,8.99
		C394.29,274.37,395.22,276.29,396.25,278.17z"/>
	<path class="st1" d="M399.17,282.03c-0.3-0.12-0.4-0.41-0.52-0.66c-2.22-4.55-4.91-8.82-7.7-13.04c-0.2-0.3-0.41-0.57-0.44-0.94
		c1.43,1.67,2.5,3.6,3.67,5.44c1.72,2.72,3.26,5.54,4.78,8.38C399.08,281.47,399.2,281.73,399.17,282.03z"/>
	<path class="st2" d="M307.68,370.25c-1.23,1.71-2.48,3.42-3.84,5.03c-1.1,1.21-2.19,2.38-3.86,2.86c-2.39,0.69-4.84-0.14-6.2-2.24
		c-0.71-1.09-1.12-2.29-1.25-3.69c-0.83,0.64-1.05,1.71-1.98,2.09c-0.77,0.9-1.54,1.8-2.31,2.7c-3.11,3.52-6.66,6.35-11.31,7.64
		c-4.25,1.17-8.26,0.8-12.05-1.44c-0.85-0.5-1.48-0.43-2.29,0.05c-3.31,1.97-6.92,2.84-10.77,2.67c-5.49-0.24-9.78-4.77-9.69-10.22
		c0.01-0.52,0.06-1.02,0.25-1.51c0.15-0.4,0.29-0.81,0.46-1.2c0.09-0.32,0.36-0.53,0.52-0.81c1.96-2.92,4.71-4.16,8.19-3.86
		c1.13,0.1,2.17,0.49,3.18,0.96c0.32,0.33,0.79,0.35,1.16,0.58c1.9,0.86,3.16,2.46,4.54,3.92c0.88,0.93,1.71,1.9,2.57,2.85
		c0.69,0.51,0.99-0.09,1.29-0.5c0.77-1.07,1.46-2.19,2.06-3.36c2.09-4.13,3.87-8.39,5.19-12.84c0.2-0.68,0.04-0.9-0.65-0.78
		c-1.24,0.2-2.48,0.25-3.74,0.25c-1.53,0-3-0.28-4.44-0.75c-0.59-0.2-1.12-0.12-1.66,0.19c-4.56,2.62-9.48,3.7-14.7,3.39
		c-3.74-0.22-7.37-1.03-10.82-2.54c-0.25-0.14-0.47-0.34-0.76-0.43c-0.4-0.18-0.76-0.04-1.1,0.15c-3.41,1.89-7,2.05-10.72,1.14
		c-4.64-1.14-8.68-3.43-12.42-6.32c-2.34-1.81-4.5-3.81-6.55-5.94c-0.11-0.12-0.24-0.21-0.37-0.31c-1.75-1.6-3.17-3.49-4.55-5.4
		c-0.39-1.07-1.18-1.9-1.79-2.83c-1.18-1.79-2.3-3.61-3.41-5.45c-2.15-3.84-4.06-7.79-5.45-11.97c-0.06-0.19-0.16-0.35-0.24-0.52
		c-0.05-0.09-0.08-0.19-0.11-0.29c-0.22-1.1-0.66-2.14-0.94-3.22c-1.12-4.29-1.79-8.66-1.58-13.09c0.2-4.09,0.98-8.07,3.68-11.38
		c0.75-0.92,1.59-1.75,2.51-2.51c0.56-0.5,1.24-0.83,1.92-1.07c3.14-1.12,6.18-2.59,9.57-2.88c2.69-0.23,4.72,0.66,5.96,3.2
		c1.32,2.7,2.4,5.5,3.51,8.29c0.23,0.57,0.53,1.09,0.8,1.64c0.69,1.38,0.52,2.11-0.72,3.04c-0.15,0.11-0.31,0.22-0.45,0.36
		c-0.49,0.6-1.19,0.86-1.88,1.09c-1.26,0.41-2.4,1.06-3.53,1.72c-0.9,0.53-1.54,2.68-1.22,4.01c0.43,1.74,1.16,3.37,1.92,4.99
		c1.53,3.57,3.55,6.85,5.95,9.9c1.96,2.49,3.58,5.21,5.6,7.65c0.59,0.71,1.18,1.42,1.81,2.11c1.35,1.47,2.95,1.74,4.79,1.1
		c0.72-0.25,1.45-0.5,2.21-0.6c1.18-0.17,2.14-0.83,3.14-1.4c1.7-0.98,3-0.83,4.42,0.55c0.75,0.73,1.29,1.59,1.79,2.49
		c1.11,2.02,2.35,3.96,3.57,5.91c1.3,2.08,2.26,4.39,2.84,6.8c0.17,0.71,0.12,1.46-0.1,2.19c-0.08,0.27-0.22,0.54-0.1,0.84
		c0.24,0.56-0.09,0.91-0.5,1.22c-0.36,0.27-0.73,0.52-1.04,0.86c-0.42,0.42-0.85,0.76-1.51,0.64c-0.38-0.07-0.76,0.09-0.84,0.47
		c-0.09,0.44,0.38,0.42,0.65,0.53c0.26,0.11,0.54,0.19,0.8,0.31c3.41,0.87,6.85,1.06,10.34,0.51c1.2-0.19,2.36-0.52,3.54-0.8
		c0.59-0.39,1.23-0.66,1.87-0.96c0.95-0.45,0.98-0.54,0.33-1.36c-2-2.56-2.67-5.39-1.77-8.55c0.21-0.76,0.6-1.4,1.03-2.04
		c1.16-1.76,2.62-3.12,4.7-3.74c4.63-1.38,9.33,2.94,8.35,7.67c-0.51,2.45-1.65,4.56-3.29,6.42c-0.17,0.19-0.44,0.37-0.35,0.64
		c0.1,0.31,0.44,0.17,0.68,0.18c1.8,0.09,3.59-0.01,5.32-0.59c1.07-0.42,1.42-1.3,1.7-2.35c0.67-2.5,1.24-5.04,2.17-7.47
		c0.51-1.35,1.04-2.69,1.94-3.83c0.61-0.78,1.16-1.61,1.95-2.24c3.29-2.6,8.21-0.59,9.03,3.69c0.64,3.34-0.52,6.17-2.53,8.75
		c-2.01,2.59-4.66,4.37-7.64,5.56c-1.55,0.62-2.14,1.71-2.58,3.1c-1.38,4.98-3.34,9.74-5.62,14.37c-0.81,1.65-1.81,3.17-3,4.57
		c-0.47,0.55-0.36,0.84,0.25,1.15c3.26,1.68,6.57,1.45,9.86,0.17c3.75-1.45,6.61-4.09,9.12-7.15c1.93-2.51,3.65-5.15,4.64-8.2
		c0.17-0.52,0.43-1,0.75-1.44l0,0c0.19-0.29,0.2-0.66,0.41-0.95c0.12-0.2,0.25-0.39,0.37-0.59c1.38-0.87,1.69-2.39,2.28-3.74
		c0.41-0.94,0.87-1.85,1.57-2.61c0.25-0.37,0.51-0.74,0.75-1.12c0.67-1.08,1.61-1.43,2.49-0.92c0.88,0.51,1.14,1.69,0.53,2.71
		c-0.88,1.46-1.69,2.95-2.26,4.55c-1.34,3.77-2,7.63-1.33,11.62c0.36,2.16,1.92,2.61,3.52,1.08c1.02-0.98,1.82-2.15,2.64-3.3
		c1.96-2.73,3.61-5.65,5.05-8.68c0.24-0.5,0.6-0.9,0.92-1.34c0.13-0.19,0.26-0.39,0.39-0.58c0.58-0.94,1.25-1.77,2.39-2.07
		c0.47-0.13,0.72-0.47,0.91-0.91c0.44-1.06,0.96-2.09,1.7-2.99c0.28-0.43,0.52-0.89,0.85-1.27c0.63-0.74,1.69-0.87,2.41-0.36
		c0.69,0.49,0.88,1.45,0.4,2.31c-1.21,2.15-2.21,4.38-2.86,6.76c-0.3,1.1-0.53,2.23-0.79,3.34c-0.36,1.4-0.41,2.82-0.32,4.27
		c1.59-2.71,3.34-5.3,5.32-7.74c1.96-2.57,3.84-5.22,6.41-7.24c1.43-1.13,3.02-1.96,4.94-1.65c1.77,0.28,2.98,1.59,3.3,3.39
		c0.38,2.2,0.01,4.34-0.47,6.47c-0.68,3.06-1.65,6.05-2.09,9.16c-0.23,1.59-0.42,3.18-0.33,4.78c0.02,0.46-0.06,1.07,0.45,1.26
		c0.48,0.18,0.77-0.35,1.11-0.63c0.12-0.1,0.24-0.21,0.36-0.32c2.37-2.75,4.15-5.89,5.9-9.05c1.21-2.18,2.27-4.44,3.3-6.72
		c0.32-0.71,0.85-1.27,1.21-1.94c0.47-0.9,1.1-1.63,2.11-1.94c0.77-0.22,1.22-0.71,1.46-1.48c0.36-1.17,1.11-2.15,1.81-3.14
		c0.98-1.27,2-2.51,3.34-3.43c1.97-1.36,4.08-1.93,6.33-0.76c2.25,1.17,3.23,3.21,3.44,5.65c0.22,2.6-0.73,4.84-2.31,6.84
		c-1.54,1.98-3.48,3.34-5.94,3.95c-0.98,0.24-1.97,0.19-2.95,0.11c-0.6-0.05-0.88,0.09-0.68,0.71c0.23,0.7,0.08,1.46,0.34,2.15
		c0.54,1.3,1.39,2.37,2.41,3.32c1.69,1.58,5,2.07,7.05,1.01c1.94-1,3.27-2.64,4.5-4.37c0.33-0.47,0.57-1.01,1.07-1.35
		c0.74-0.5,1.51-0.52,2.24-0.01c0.69,0.47,0.97,1.45,0.62,2.23c-0.52,1.14-1.23,2.17-2.08,3.1c-0.45,0.5-0.91,0.99-1.37,1.49
		c-2.01,2.11-4.38,3.42-7.38,3.33c-1.31-0.04-2.62,0.05-3.91-0.33c-2.95-0.86-4.78-2.99-6.3-5.47c-1.09-1.78-1.57-3.77-1.83-5.85
		c-0.72,1.24-1.27,2.56-2.17,3.67c-1.76,3.3-3.64,6.52-5.97,9.46c-0.53,0.67-1.14,1.29-1.71,1.94c-0.88,1-1.87,1.83-3.22,2.14
		c-1.65,0.38-3.33-0.24-4.28-1.65c-0.74-1.1-1-2.34-1.06-3.64c-0.13-3.16,0.34-6.26,1.03-9.33c0.52-2.28,1.23-4.52,1.67-6.82
		c0.16-0.85,0.29-1.71,0.34-2.57c0.05-1-0.37-1.23-1.22-0.72c-1.37,0.81-2.38,2.03-3.5,3.13c-2.89,3.5-5.62,7.12-7.84,11.1
		c-0.92,1.65-1.83,3.3-3.14,4.68c-1.36,1.64-3.82,0.91-4.43-1.33c-0.44-1.6-0.27-3.24-0.17-4.87c0.04-0.57,0.12-1.14,0.12-1.75
		C309.06,368.44,308.63,369.54,307.68,370.25z"/>
	<path class="st3" d="M235.47,359.46c2.2,0.8,4.4,1.55,6.71,1.97c5.67,1.03,11.21,0.77,16.51-1.72c0.58-0.27,1.21-0.47,1.72-0.84
		c0.95-0.69,1.87-0.72,2.95-0.34c2.64,0.95,5.35,0.69,8.05,0.27c0.6-0.09,0.73,0.08,0.57,0.58c-1.74,5.57-3.72,11.03-6.92,15.97
		c-0.31,0.48-0.71,0.91-1.08,1.35c-0.34,0.4-0.69,0.46-0.99-0.06c0.58,0.21,0.88-0.13,1.15-0.56c1.34-2.12,2.25-4.45,3.22-6.74
		c1.01-2.38,1.9-4.81,2.59-7.31c0.2-0.71,0.32-1.03-0.7-0.87c-2.96,0.45-5.93,0.52-8.79-0.58c-0.46-0.18-0.8-0.03-1.17,0.17
		c-2.28,1.23-4.63,2.27-7.18,2.86c-4.13,0.95-8.23,0.86-12.35,0.03c-2.07-0.42-4.09-1.03-6.04-1.85c-0.74-0.45-1.38-0.29-2.13,0.12
		c-3.27,1.78-6.74,1.96-10.33,1.16c-3.97-0.89-7.48-2.75-10.8-5.03c-4.42-3.04-8.11-6.86-11.53-10.96
		c-2.68-3.21-4.94-6.69-7.01-10.32c-2.48-4.36-4.55-8.89-6.04-13.68c-1.21-3.88-2.01-7.84-2.3-11.92c-0.2-2.69,0.01-5.3,0.48-7.9
		c0.48-2.67,1.58-5.13,3.16-7.35c0.09-0.13,0.23-0.22,0.4-0.25c0.1,0.05,0.16,0.13,0.18,0.25c-0.67,1.55-1.3,3.12-1.63,4.77
		c-0.58,2.88-0.74,5.78-0.48,8.74c0.23,2.6,0.61,5.17,1.21,7.71c0.04,0.19,0.12,0.36,0.18,0.55c0.06,1.53,0.69,2.92,1.15,4.35
		c1.28,3.94,2.97,7.72,4.97,11.34c1.53,2.77,3.21,5.46,5.07,8.04c1.44,2,2.89,3.99,4.58,5.79c4.63,4.94,9.62,9.42,15.95,12.14
		c3.16,1.36,6.43,2.15,9.9,1.8c1.74-0.17,3.39-0.7,4.9-1.57C234.23,359.19,234.82,359.03,235.47,359.46z"/>
	<path class="st2" d="M290.52,306.13c2.29,4.27,0.75,7.13-2.55,10.01c-1.02,0.9-1.07,0.84-0.35,1.97c0.9,1.41,1.43,2.93,1.4,4.62
		c-0.04,1.79,0.11,3.59-0.41,5.34c-0.36,0.48-0.72,0.97-1.38,1.06c-1.25,0.27-1.96-0.15-2.34-1.35c-0.4-1.28-0.02-2.55,0.07-3.81
		c0.07-1.02-0.05-1.97-0.35-2.93c-0.29-0.92-0.94-1.46-1.84-1.65c-0.94-0.2-1.88-0.38-2.86-0.19c-0.76,0.16-1.53,0.09-2.3,0.09
		c-1.4-0.01-2.72,0.36-4.03,0.8c-0.33,0.11-0.4,0.35-0.49,0.64c-0.31,1.08-0.44,2.18-0.39,3.31c0.02,0.31,0.1,0.64-0.09,0.94
		c-0.03,1.1-0.16,2.17-1.16,2.89c-1.92,0.7-3.33-0.27-3.13-2.35c0.26-2.68,0.34-5.37,0.59-8.05c0.23-2.46,0.33-4.92,0.5-7.38
		c0.13-1.85,0.28-3.71,0.43-5.56c0.05-0.62,0.49-1.11,0.65-1.69c0.47-1.17,1.45-1.73,2.61-1.86c3.76-0.42,7.52-0.61,11.24,0.41
		c1.35,0.37,2.52,1.08,3.67,1.85C289.06,304.02,289.93,304.96,290.52,306.13z"/>
	<path class="st2" d="M360.95,330.17c-0.17,0.27-0.34,0.54-0.5,0.81c-0.26,0.26-0.6,0.42-0.91,0.6c-1.13,0.19-1.94-0.44-2.05-1.61
		c-0.05-0.5,0.1-0.97,0.28-1.43c0.29-0.76,0.63-1.51,0.57-2.35c-0.02-0.24,0.06-0.51,0.2-0.7c1.19-1.55,1.54-3.46,2.22-5.23
		c1.43-3.73,2.71-7.51,4.09-11.26c0.22-0.59,0.5-1.14,0.84-1.67c0.63-1.38,1.12-1.74,2.27-1.65c1.4,0.1,2.11,0.65,2.5,2.02
		c1.62,5.79,3.23,11.58,4.84,17.37c0.35,1.25,0.66,2.51,1.03,3.75c0.25,0.85,0.07,1.54-0.54,2.15c-1.56,0.68-2.33,0.35-2.85-1.23
		c-0.42-1.28-0.45-1.3-1.76-1.3c-2.87,0-5.73-0.21-8.6-0.23c-0.54,0-0.81,0.18-0.93,0.67C361.52,329.39,361.28,329.8,360.95,330.17z
		"/>
	<path class="st2" d="M319.25,311.88c1.36,3.99,0.72,7.73-1.48,11.25c-0.27,0.43-0.57,0.84-0.86,1.27
		c-2.52,3.4-6.01,5.07-10.11,5.03c-7.93-0.07-13.38-6.39-13.45-13.19c-0.03-2.83,0.67-5.38,2.41-7.63c1.79-2.45,4.03-4.3,6.96-5.19
		c4.73-1.45,8.99-0.51,12.75,2.66c1.08,0.91,2.05,1.94,2.64,3.26C318.55,310.17,318.91,311.02,319.25,311.88z"/>
	<path class="st2" d="M244.71,303.61c1.51-1.85,3.41-2.89,5.84-3.05c3.58-0.23,6.9,0.35,9.68,2.8c2.18,1.93,3.48,4.39,4.1,7.22
		c1.12,5.06-0.49,9.25-4.04,12.84c-2.38,2.34-5.3,3.38-8.58,3.62c-0.93,0.07-1.86,0.1-2.78,0.18c-1.74,0.16-3.27-0.57-4.87-0.99
		c-1.07-0.28-1.42-1.35-1.33-2.34c0.2-2.12,0.05-4.23,0.2-6.35c0.17-2.49,0.28-4.99,0.51-7.48c0.15-1.63,0.39-3.25,0.61-4.87
		C244.12,304.62,244.53,304.16,244.71,303.61z"/>
	<path class="st2" d="M325.6,303.61c1.63-1.22,3.57-1.31,5.47-1.5c3.27-0.32,6.33,0.44,9.06,2.21c4.8,3.11,5.35,9.71,1.24,13.68
		c-0.14,0.13-0.25,0.28-0.38,0.42c-1.01,1.43-2.52,2.03-4.13,2.41c-1.12,0.27-2.27,0.41-3.43,0.4c-1.57-0.01-3.14,0-4.71,0
		c-0.6,0-0.95,0.21-1.06,0.84c-0.31,1.78-0.3,3.57-0.21,5.35c0.03,0.55,0.03,1.07-0.14,1.6l0,0.01c-0.14,0.21-0.13,0.5-0.37,0.65
		c-0.29,0.39-0.7,0.59-1.16,0.7l-0.01,0c-0.88,0.3-1.44,0.13-1.99-0.62c-0.54-0.74-0.7-1.59-0.57-2.47
		c0.16-1.09,0.17-2.17,0.14-3.26c-0.12-4.01,0.19-8.01,0.23-12.01c0.02-1.88,0.22-3.77,0.24-5.66c0.01-0.61,0.29-1.17,0.72-1.63
		C324.91,304.37,325.31,304.04,325.6,303.61z"/>
	<path class="st3" d="M242.58,374.11c-1.1,5.66,2.96,11.52,9.92,11.56c3.77,0.02,7.28-0.92,10.46-2.95
		c0.61-0.39,1.07-0.35,1.66,0.02c2.52,1.63,5.31,2.46,8.29,2.3c3.75-0.2,7.17-1.49,10.27-3.65c1.85-1.29,3.4-2.9,5.06-4.39
		c0,0.25-0.15,0.41-0.31,0.58c-2.55,2.61-5.05,5.29-8.27,7.13c-2.34,1.34-4.82,2.16-7.5,2.51c-3.43,0.46-6.54-0.34-9.41-2.17
		c-0.66-0.42-1.13-0.39-1.8,0.03c-3.43,2.16-7.21,3.2-11.24,2.86c-5.74-0.48-9.14-4.52-9.23-9.91c-0.03-2,0.77-3.73,2.26-5.1
		c0.03,0.03,0.07,0.07,0.1,0.1C242.82,373.41,242.66,373.75,242.58,374.11z"/>
	<path class="st4" d="M212.6,285.7c-1.2,0-2.12-1.14-1.9-2.34c0.13-0.71,0.44-1.34,0.82-1.93c2.75-4.17,5.67-8.21,8.71-12.17
		c0.29-0.38,0.64-0.72,1-1.03c0.9-0.77,1.99-0.78,2.89-0.05c0.79,0.64,0.96,1.8,0.34,2.79c-0.93,1.5-2.15,2.78-3.22,4.18
		c-2.26,2.94-4.62,5.81-6.59,8.96C214.13,284.92,213.7,285.7,212.6,285.7z"/>
	<path class="st3" d="M295.75,308.63c-0.86,1.64-1.65,3.29-1.99,5.15c-0.94,5.14,1.65,10.95,6.24,13.51
		c5.03,2.81,9.96,2.55,14.66-0.81c0.82-0.59,1.5-1.38,2.25-2.07c-0.78,1.33-1.89,2.4-2.99,3.43c-1.93,1.81-4.24,2.96-6.86,3.42
		c-4.14,0.73-7.8-0.39-10.94-3.11c-3.41-2.96-4.78-6.82-4.4-11.25c0.21-2.45,1.13-4.72,2.7-6.66
		C294.87,309.7,295.07,308.96,295.75,308.63z"/>
	<path class="st4" d="M219.63,296.47c-0.54-0.02-1.08,0.08-1.62-0.12c-0.91-0.33-1.45-1.03-1.43-1.94c0.02-0.91,0.58-1.6,1.57-1.79
		c1.51-0.3,3.05-0.27,4.57-0.53c3.19-0.53,6.36-1.12,9.51-1.83c0.34-0.08,0.69-0.14,1.04-0.15c1.07-0.02,1.93,0.56,2.16,1.42
		c0.3,1.08-0.13,2-1.17,2.58c-1.03,0.57-2.19,0.67-3.32,0.88c-3.39,0.63-6.81,1.1-10.24,1.47
		C220.34,296.5,219.98,296.47,219.63,296.47z"/>
	<path class="st3" d="M244.71,303.61c-0.97,4.18-1.11,8.46-1.4,12.72c-0.16,2.33,0.01,4.67-0.31,6.99c-0.25,1.79,0.44,2.31,2.16,2.9
		c1.59,0.54,3.15,0.73,4.79,0.69c3.68-0.09,7.07-1,9.99-3.35c0.09-0.08,0.23-0.1,0.35-0.15c-1.09,1.87-2.82,3.03-4.66,4
		c-3.41,1.79-7.06,2.09-10.81,1.61c-0.83-0.11-1.58-0.54-2.45-0.67c-0.95-0.15-1.4-1.11-1.28-2c0.3-2.26,0.04-4.54,0.3-6.8
		c0.18-1.55,0.07-3.13,0.24-4.69c0.29-2.63,0.5-5.27,0.83-7.9c0.08-0.63,0.38-1.29,1.01-1.68
		C244.08,304.89,244.19,304.1,244.71,303.61z"/>
	<path class="st3" d="M343.11,367.74c0.72-1.47,1.44-2.94,2.16-4.41c0.09,0.02,0.19,0.03,0.28,0.05c0.12,1,0.19,1.99,0.44,2.97
		c0.91,3.62,2.88,6.46,6.15,8.3c1.39,0.78,2.99,0.75,4.55,0.85c2.69,0.17,4.95-0.77,7-2.39c0.33-0.26,0.67-0.48,1.01-0.72
		c-0.78,1.36-2.01,2.29-3.21,3.23c-2.19,1.71-4.65,2.27-7.45,2.16c-4.96-0.2-7.52-3.23-9.38-7.27c-0.47-1.01-0.69-2.1-0.89-3.27
		C343.49,367.45,343.3,367.59,343.11,367.74z"/>
	<path class="st3" d="M325.19,359.65c1.02-1.54,2.25-2.85,3.93-3.68c0.59-0.3,0.84-0.12,0.99,0.52c0.23,1.05-0.02,2.05-0.23,3.03
		c-0.54,2.56-1.22,5.1-1.81,7.65c-0.69,2.97-1.06,5.98-0.94,9.04c0.11,2.66,1.39,4.47,3.61,4.9c1.31,0.25,2.42-0.34,3.46-1.07
		c0.42-0.29,0.82-0.6,1.23-0.9c-1.5,2.04-3.19,3.98-5.85,4.28c-2.02,0.22-3.69-1.01-4.16-3.54c-0.57-3-0.09-5.98,0.43-8.95
		c0.53-3.05,1.59-5.99,2.1-9.04c0.17-1.02,0.51-2.03,0.23-3.12c-0.18-0.7-0.47-0.7-1.02-0.46
		C326.41,358.63,325.85,359.21,325.19,359.65z"/>
	<path class="st4" d="M226.24,318.25c-0.77,0.03-1.36-0.27-1.84-0.77c-2.59-2.7-5.16-5.42-7.45-8.39c-0.81-1.05-0.75-2.03,0.11-2.82
		c0.8-0.73,2.01-0.73,2.82,0.21c2.43,2.81,5.08,5.41,7.67,8.07c0.68,0.7,0.95,1.59,0.47,2.55
		C227.65,317.84,227.07,318.29,226.24,318.25z"/>
	<path class="st3" d="M325.6,303.61c-0.01,0.06,0,0.16-0.04,0.18c-1.8,1.25-1.41,3.18-1.49,4.94c-0.27,5.82-0.45,11.65-0.43,17.48
		c0,0.6-0.16,1.21-0.15,1.81c0.03,1.53,0.82,2.3,2.3,2.36c-0.18,0.3-0.33,0.59-0.43,0.94c-0.23,0.8-0.78,1.31-1.66,1.36
		c-0.92,0.06-1.52-0.4-1.88-1.21c-0.25-0.57-0.38-1.18-0.25-1.78c0.26-1.24,0.14-2.49,0.16-3.73c0.08-3.93,0.05-7.87,0.25-11.8
		c0.07-1.42-0.04-2.88,0.3-4.29c0.07-0.31,0.02-0.63-0.08-0.95c-0.19-0.59-0.14-1.28,0.26-1.64c1.09-0.97,1.55-2.42,2.68-3.35
		C325.29,303.83,325.45,303.73,325.6,303.61z"/>
	<path class="st3" d="M272.68,324.47c-0.38-1.15-0.03-2.61,0.09-3.8c0.02-0.2,0.04-0.41,0.16-0.58c0.15-0.22,0.41-0.31,0.67-0.39
		c2.39-0.74,4.92-0.91,7.42-0.76c0.86,0.05,1.74,0.14,2.52,0.51c2.53,1.2,1.66,4.54,1.48,6.74c-0.06,0.67,0.02,1.29,0.25,1.88
		c0.4,1.01,1.26,1.06,2.18,0.95c0.13-0.08,0.26-0.09,0.39,0.02c-0.33,0.29-0.85,0.23-1.03,0.85c-0.39,1.32-1.19,1.73-2.25,1.5
		c-1.21-0.27-1.53-1.58-1.47-2.59c0.08-1.39,0.41-2.76,0.19-4.18c-0.44-2.92-1.42-3.27-3.86-3.42c-1.42-0.09-2.85-0.38-4.27-0.18
		C272.96,321.31,273.05,322.73,272.68,324.47z"/>
	<path class="st3" d="M270.51,302.84c-0.74,3.48-0.66,7.03-0.98,10.54c-0.36,3.93-0.39,7.89-0.92,11.81
		c-0.13,0.91,0.04,1.75,0.78,2.45c0.68,0.65,1.39,0.22,2.08,0.23c-0.6,0.34-0.98,0.82-1.22,1.48c-0.27,0.75-0.95,1.06-1.69,1
		c-0.81-0.06-1.4-0.49-1.71-1.31c-0.45-1.19-0.05-2.36,0.08-3.51c0.17-1.56,0.12-3.12,0.28-4.68c0.37-3.42,0.58-6.86,0.77-10.29
		c0.09-1.56,0.13-3.12,0.42-4.66c0.16-0.88,0.54-1.65,1.36-2.1C270.15,303.58,270.15,303.07,270.51,302.84z"/>
	<path class="st3" d="M360.95,330.17c0.19-0.59,0.37-1.18,0.57-1.77c0.13-0.39,0.39-0.59,0.81-0.46c0.4,0.13,0.81,0.08,1.21,0.09
		c2.79,0.07,5.58,0.14,8.37,0.18c0.64,0.01,0.94,0.3,1.09,0.87c0.07,0.26,0.12,0.53,0.21,0.78c0.37,1.15,0.99,1.47,2.17,1.17
		c0.13-0.03,0.27-0.04,0.4-0.06c-0.64,0.35-1.03,0.89-1.34,1.56c-0.22,0.48-0.75,0.76-1.29,0.67c-0.64-0.11-1.22-0.38-1.48-1.1
		c-0.7-1.93-0.72-1.92-2.79-1.94c-2.3-0.01-4.6-0.26-6.9-0.17C361.63,330.02,361.27,329.97,360.95,330.17z"/>
	<path class="st5" d="M365.68,307.34c-0.85,2.34-1.69,4.68-2.54,7.02c-1.15,3.18-2.31,6.36-3.45,9.54
		c-0.18,0.49-0.35,0.97-0.75,1.33c-0.28,0.26-0.45,0.63-0.4,0.95c0.14,0.92-0.31,1.68-0.59,2.48c-0.04,0.13-0.09,0.26-0.13,0.38
		c-0.48,1.48,0.26,2.47,1.81,2.41c0.05,0.04,0.07,0.08,0.05,0.11c-0.02,0.04-0.03,0.06-0.05,0.06l-0.01,0.01
		c-0.31,0.17-0.42,0.48-0.58,0.76c-0.44,0.72-1.17,1.04-1.85,0.84c-0.66-0.19-1.04-0.87-0.97-1.76c0.01-0.19,0.03-0.39,0.1-0.56
		c0.39-0.94,0.79-1.88,0.76-2.94c-0.01-0.25,0.13-0.52,0.27-0.75l0,0c0.75-0.44,0.71-1.28,0.98-1.96c0.23-1.24,0.8-2.35,1.22-3.52
		c1.42-3.98,2.91-7.93,4.31-11.91C364.23,308.79,364.83,307.99,365.68,307.34z"/>
	<path class="st6" d="M187.66,295.69c-1.37,1.53-2.2,3.38-2.82,5.29c-0.9,2.78-1.3,5.68-1.18,8.59c0.11,2.74,0.38,5.46,0.96,8.16
		c1.18,5.45,3.09,10.63,5.62,15.57c2.42,4.73,5.19,9.25,8.59,13.38c1.98,2.4,4.05,4.71,6.32,6.83c4.1,3.83,8.65,7.01,14.04,8.78
		c3.47,1.14,6.99,1.53,10.53,0.26c0.69-0.25,1.36-0.58,2-0.94c0.73-0.43,1.38-0.4,2,0.17c-1.12-0.53-1.96,0.27-2.84,0.68
		c-3.13,1.44-6.35,1.49-9.65,0.78c-3.45-0.74-6.52-2.32-9.49-4.15c-2.66-1.63-5.1-3.56-7.28-5.74c-3.05-3.05-5.99-6.21-8.46-9.78
		c-3.91-5.65-7.2-11.61-9.49-18.11c-1.13-3.2-2.09-6.43-2.63-9.77c-0.43-2.71-0.81-5.46-0.6-8.2c0.31-4.04,1.13-7.97,3.6-11.35
		c0.23-0.31,0.45-0.62,0.8-0.81C187.81,295.45,187.78,295.57,187.66,295.69z"/>
	<path class="st7" d="M290.54,374.3c0.63-0.87,1.26-1.74,1.9-2.62c0.43,0.23,0.34,0.64,0.4,1c0.31,2.05,1.14,3.8,3.02,4.84
		c2.06,1.14,4.76,0.7,6.58-0.96c0.47-0.43,0.83-0.97,1.4-1.29c-1.95,2.41-3.82,4.98-7.29,5.16c-2.3,0.12-4.28-1.31-5.08-3.5
		c-0.25-0.69-0.57-1.36-0.56-2.12C290.91,374.58,290.76,374.41,290.54,374.3z"/>
	<path class="st3" d="M307.68,370.25c0.72-1.15,1.44-2.31,2.29-3.67c0.03,0.98,0.05,1.73-0.06,2.5c-0.21,1.4-0.23,2.82-0.05,4.2
		c0.34,2.62,1.93,3.36,4.35,2.15c-0.46,0.57-0.91,1.15-1.38,1.7c-0.92,1.09-2.11,1.55-3.14,1.13c-1.3-0.53-1.72-1.7-1.78-2.95
		c-0.06-1.34-0.16-2.68,0.12-4.02C308.09,370.95,308.31,370.42,307.68,370.25z"/>
	<path class="st8" d="M327.32,329.03c0.01-2.21,0-4.43,0.03-6.64c0.02-1.4,0.09-1.42,1.47-1.45c2.65-0.05,5.31,0.24,7.94-0.37
		c1.59-0.37,2.99-1.08,4.22-2.14c-1.12,1.76-2.61,3.1-4.53,3.93c-2.39,1.03-4.93,0.91-7.45,0.9c-1.47-0.01-1.49,0-1.47,1.47
		c0.02,1.02-0.11,2.04,0.13,3.06C327.77,328.22,327.64,328.67,327.32,329.03z"/>
	<path class="st9" d="M256.45,344.06c-0.56,1.32-1.04,2.67-1.15,4.12c-0.19,2.57,0.71,4.77,2.41,6.65c0.55,0.61,0.43,0.9-0.21,1.18
		c-0.79,0.34-1.58,0.66-2.38,0.99c-0.07-0.04-0.09-0.09-0.07-0.14c0.02-0.05,0.04-0.07,0.06-0.07c0.36-0.39-0.09-0.6-0.24-0.8
		c-2.48-3.39-1.65-8.47,0.75-11.01C255.9,344.67,256.02,344.22,256.45,344.06z"/>
	<path class="st10" d="M300.57,346.39c1.26-0.85,2.6-0.65,3.29,0.51c0.71,1.19,0.22,2.53-1.2,3.32c-0.82,0.44-1.53,0.24-2.17-0.38
		c-0.66-0.64-0.87-1.37-0.5-2.26C300.16,347.17,300.27,346.74,300.57,346.39z"/>
	<path class="st11" d="M277.66,340.99c-2.05,3.92-3.03,8.19-4.12,12.42c-0.24,0.93-0.85,1.2-1.68,1.23c0.88-2.93,1.49-5.95,2.7-8.78
		C275.32,344.07,276.21,342.35,277.66,340.99z"/>
	<path class="st5" d="M350.25,366.97c-0.56-0.86-0.49-1.89-0.74-2.83c-0.08-0.32,0.16-0.48,0.47-0.42c3.82,0.74,6.75-0.84,9.27-3.53
		c0.06-0.07,0.16-0.1,0.24-0.15c-1.07,1.5-2.29,2.86-3.75,3.99c-1.49,1.15-3.17,1.87-5.02,2.16
		C350.16,366.29,350.28,366.65,350.25,366.97z"/>
	<path class="st12" d="M212.16,303.81c0.1-0.12,0.18-0.27,0.31-0.35c1.39-0.9,1.58-1.5,0.84-2.92c-1.53-2.96-2.51-6.15-3.95-9.14
		c-1.9-3.95-3.59-4.02-7.08-3.7c-2.92,0.27-5.53,1.71-8.29,2.59c-0.74,0.23-1.38,0.78-2.07,1.18c-0.11,0.11-0.24,0.1-0.38,0.05
		c-0.13-0.23,0.04-0.32,0.19-0.43l0.01,0c0.29-0.24,0.67-0.33,0.95-0.58c3.43-1.58,6.95-2.95,10.72-3.41
		c2.17-0.27,4.57,0.59,5.79,3.09c1.18,2.42,2.28,4.86,3.15,7.41c0.35,1.01,0.85,1.93,1.32,2.88c0.69,1.38,0.49,2.19-0.76,3.14
		C212.67,303.71,212.48,304.02,212.16,303.81z"/>
	<path class="st13" d="M300.57,346.39c-0.06,0.15-0.09,0.31-0.17,0.44c-1.08,1.87,0.21,3.73,2.26,3.38
		c-0.32,0.25-0.42,0.63-0.57,0.97c-0.4,0.91-1.03,1.44-2.08,1.36c-0.94-0.07-1.52-0.58-1.82-1.44c-0.32-0.92-0.12-2.05,0.67-2.49
		c0.73-0.41,1.03-0.96,1.23-1.67C300.16,346.7,300.28,346.45,300.57,346.39z"/>
	<path class="st14" d="M212.16,303.81c0.25-0.07,0.51-0.13,0.76-0.2c-0.98,0.7-1.2,2.08-2.46,2.57c-0.92,0.36-1.82,0.77-2.75,1.11
		c-1.71,0.63-2.18,1.28-1.81,3.44c0.28,1.62,1.17,3.04,1.64,4.6c0.1,0.15,0.11,0.29-0.02,0.43c-0.95-1.68-1.66-3.46-2.07-5.34
		c-0.27-1.25,0.29-2.39,0.73-3.52c0.12-0.31,0.43-0.34,0.67-0.48c1.43-0.86,2.96-1.52,4.52-2.08
		C211.66,304.23,211.89,303.99,212.16,303.81z"/>
	<path class="st15" d="M207.51,315.76c0.01-0.14,0.02-0.28,0.02-0.43c0.74,1.08,1.2,2.32,1.78,3.48c1.75,3.52,4.37,6.44,6.58,9.64
		c1.61,2.34,3.26,4.64,5.19,6.74c1.32,1.43,2.82,1.69,4.6,1.07c0.71-0.25,1.45-0.49,2.23-0.51c0.06,0.04,0.08,0.09,0.07,0.14
		c-0.01,0.05-0.03,0.08-0.04,0.08c-0.67,0.21-1.34,0.42-2.01,0.63c-2.82,0.91-3.96,0.18-5.6-1.65c-2.78-3.1-4.88-6.72-7.44-9.98
		c-2.07-2.63-3.67-5.52-5.19-8.48C207.58,316.26,207.49,316.03,207.51,315.76z"/>
	<path class="st16" d="M343.31,358.32c-1.97,4.1-3.82,8.27-6.24,12.15c-1,1.6-2.07,3.14-3.22,4.64c-0.27,0.35-0.54,0.72-0.95,0.92
		c0.93-1.4,1.89-2.79,2.79-4.21c2.07-3.28,3.62-6.82,5.25-10.33C341.52,360.25,342.27,359.18,343.31,358.32z"/>
	<path class="st8" d="M275.89,359.84c0.21-1.46,0.62-2.58,2.28-3.23c2.77-1.08,5.34-2.65,7.36-4.93c0.17-0.19,0.38-0.33,0.58-0.49
		c-0.89,1.36-2.01,2.52-3.21,3.61c-1.81,1.64-3.88,2.88-6.09,3.9C276.27,358.95,276.22,359.48,275.89,359.84z"/>
	<path class="st17" d="M227.94,335.97c-0.01-0.07-0.02-0.14-0.02-0.21c0.58-0.26,1.17-0.51,1.75-0.77c0.48-0.17,0.94-0.38,1.37-0.66
		c1.65-1.07,3.08-0.88,4.5,0.46c1.62,1.54,2.33,3.65,3.52,5.45c0.58,0.88,1.07,1.82,1.75,2.63c0.54,0.65,0.91,1.4,1.18,2.18
		c0.63,1.8,1.7,3.45,1.96,5.39c0.05,0.35,0.09,0.7,0.07,1.05c-0.06,0.75-0.53,1.49-0.09,2.27c0.05,0.09-0.1,0.22-0.17,0.33
		c-0.02,0.05-0.03,0.1-0.03,0.15c-0.33,0.18-0.65,0.38-0.95,0.61l0,0c-0.26,0.15-0.43,0.42-0.74,0.5c-0.09-0.01-0.16-0.05-0.23-0.11
		c0.15-0.3,0.45-0.44,0.68-0.65c0.44-0.4,1.25-0.58,0.74-1.55c-0.18-0.34,0.25-0.96,0.31-1.46c0.16-1.49-0.52-2.79-0.99-4.15
		c-1-2.92-2.91-5.3-4.43-7.92c-0.89-1.54-1.55-3.23-2.91-4.48c-1.22-1.12-2.46-1.25-3.92-0.4
		C230.25,335.23,229.22,335.94,227.94,335.97z"/>
	<path class="st18" d="M243.75,354.08c-0.45-1.49,0.53-3-0.06-4.49c-0.58-1.46-1.16-2.91-1.76-4.36c-0.96-2.29-2.67-4.12-3.8-6.31
		c-0.76-1.47-1.49-2.98-2.75-4.14c-1.23-1.14-2.7-1.33-4.13-0.45c-0.49,0.3-0.93,0.7-1.56,0.65c0.69-0.4,1.35-0.85,2.07-1.19
		c1.35-0.63,2.57-0.31,3.69,0.67c1.65,1.44,2.35,3.48,3.5,5.23c0.73,1.12,1.53,2.2,2.21,3.34c1.32,2.22,2.29,4.63,2.92,7.15
		c0.17,0.7,0.17,1.46-0.05,2.18c-0.11,0.37-0.22,0.7,0.05,1.08C244.23,353.7,244.15,354.02,243.75,354.08z"/>
	<path class="st19" d="M291.88,363.32c-0.99,3.37-2.58,6.43-4.82,9.14c-0.16,0.19-0.38,0.33-0.57,0.5c0.16-0.67,0.7-1.12,1.05-1.67
		c1.06-1.68,1.69-3.55,2.36-5.4C290.3,364.8,290.8,363.85,291.88,363.32z"/>
	<path class="st20" d="M308.82,360.04c-1.65,3.44-3.31,6.88-5.73,9.87c-0.06,0.07-0.16,0.1-0.24,0.15c0.12-0.77,0.73-1.26,1.07-1.9
		c1.09-2.1,2.19-4.19,3.33-6.26C307.64,361.18,308.07,360.47,308.82,360.04z"/>
	<path class="st21" d="M242,355.25c0.26-0.13,0.43-0.42,0.76-0.41c-0.71,0.58-0.61,1.75-1.64,2.16c4.72,1.32,9.36,1.21,13.98-0.22
		c0,0.07,0.01,0.14,0.01,0.21c-3.42,1.14-6.92,1.47-10.5,1.03c-1.27-0.16-2.54-0.31-3.77-0.68c-0.37-0.2-0.41-0.51-0.11-0.75
		C241.22,356.19,241.53,355.64,242,355.25z"/>
	<path class="st22" d="M296.52,355.43c-0.86,1.69-1.73,3.38-2.32,5.19c-0.24,0.73-1.09,0.69-1.54,1.17c0.78-1.99,1.79-3.85,3.01-5.6
		C295.88,355.88,296.14,355.58,296.52,355.43z"/>
	<path class="st23" d="M319.22,360.8c-0.53,1.1-1.42,1.96-2.08,2.97c-0.98,1.5-1.99,2.97-2.83,4.56c-0.13,0.24-0.21,0.54-0.64,0.62
		c-0.06-1.61-0.04-3.17,0.55-4.67c0.07,1.09-0.38,2.15-0.14,3.3c0.43-0.25,0.61-0.7,0.85-1.07c1.17-1.83,2.47-3.57,3.8-5.29
		C318.86,361.03,318.95,360.82,319.22,360.8z"/>
	<path class="st24" d="M357.56,326.14c-0.13,1.45-0.42,2.85-1.01,4.2c-0.66,1.52,0.21,2.92,1.59,2.73c0.65-0.09,1.09-0.48,1.39-1.05
		c0.16-0.3,0.27-0.67,0.71-0.68c-0.25,0.41-0.46,0.84-0.74,1.22c-0.63,0.85-1.51,1.13-2.35,0.79c-0.84-0.35-1.38-1.2-1.1-2.2
		c0.42-1.49,1.01-2.94,1.12-4.51C357.19,326.41,357.34,326.24,357.56,326.14z"/>
	<path class="st25" d="M314.21,353.49c-0.57,1.21-1.14,2.42-1.72,3.63c-0.07,0.14-0.2,0.34-0.3,0.34c-1.44,0.02-2.14,1.11-2.98,2
		c0.28-0.94,0.9-1.59,1.8-1.95c0.49-0.2,0.73-0.56,0.95-1C312.52,355.36,313.15,354.26,314.21,353.49z"/>
	<path class="st26" d="M348.7,351.76c-0.67,1.39-1.47,2.71-1.98,4.18c-0.24,0.69-0.82,0.42-1.29,0.45c0.94-1.35,1.63-2.86,2.73-4.1
		C348.32,352.09,348.45,351.86,348.7,351.76z"/>
	<path class="st27" d="M258.47,337.06c0.57-0.31,1.02,0.13,1.51,0.09c0.17-0.01,0.3,0.11,0.26,0.31c-0.03,0.2-0.2,0.24-0.36,0.23
		C259.35,337.65,258.83,337.57,258.47,337.06z"/>
	<path class="st3" d="M191.73,291.09c-0.06,0.13-0.13,0.25-0.19,0.38c-0.75,0.85-1.49,1.7-2.42,2.35c-0.04-0.02-0.08-0.05-0.12-0.07
		C189.73,292.68,190.58,291.73,191.73,291.09z"/>
	<path class="st28" d="M290.52,306.13c-0.76-1.03-1.63-1.97-2.5-2.9C289.24,303.86,290.1,304.81,290.52,306.13z"/>
	<path class="st24" d="M358.72,323.83c-0.1,0.92-0.09,1.88-1.16,2.31C358.2,325.5,358.19,324.53,358.72,323.83z"/>
	<path class="st29" d="M319.25,311.88c-0.54-0.77-0.85-1.65-1.15-2.53C318.76,310.08,319.09,310.94,319.25,311.88z"/>
	<path class="st30" d="M287.83,329.03c-0.13-0.01-0.26-0.01-0.39-0.02c0.39-0.31,0.78-0.63,1.17-0.94
		C288.56,328.56,288.2,328.8,287.83,329.03z"/>
	<path class="st3" d="M187.66,295.69c0.01-0.12,0.02-0.24,0.02-0.36c0.25-0.27,0.49-0.53,0.74-0.8c0.03,0.03,0.07,0.06,0.1,0.09
		c-0.08,0.51-0.23,0.97-0.82,1.11L187.66,295.69z"/>
	<path class="st31" d="M255.88,369.87c-0.49,0.01-0.91-0.12-1.16-0.58C255.14,369.4,255.6,369.45,255.88,369.87z"/>
	<path class="st24" d="M360.26,331.33c0-0.07,0-0.14-0.01-0.2c0.31-0.21,0.57-0.5,0.96-0.56
		C361.14,331.13,360.6,331.11,360.26,331.33z"/>
	<path class="st3" d="M325.79,330.39c0.38-0.25,0.77-0.5,1.15-0.76c0.05,0.04,0.07,0.08,0.06,0.13c-0.01,0.05-0.03,0.07-0.05,0.07
		C326.69,330.27,326.3,330.46,325.79,330.39z"/>
	<path class="st21" d="M242.77,354.84c0.2-0.38,0.51-0.59,0.95-0.61C243.46,354.54,243.19,354.8,242.77,354.84z"/>
	<path class="st3" d="M192.69,290.51c-0.2,0.38-0.56,0.51-0.95,0.58C191.94,290.69,192.3,290.58,192.69,290.51z"/>
	<path class="st3" d="M188.42,294.52c0.07-0.35,0.31-0.57,0.58-0.77c0,0,0.06,0.05,0.06,0.05c0.14,0.51-0.16,0.68-0.58,0.77
		L188.42,294.52z"/>
	<path class="st19" d="M292.29,362.37c-0.01,0.37-0.1,0.7-0.41,0.95C291.87,362.94,291.96,362.6,292.29,362.37z"/>
	<path class="st3" d="M243.35,372.19c0.02,0.33-0.26,0.51-0.37,0.78c-0.06,0.08-0.12,0.08-0.18,0.01c0,0-0.04-0.04-0.04-0.04
		C242.82,372.58,243.03,372.34,243.35,372.19z"/>
	<path class="st8" d="M326.96,329.83c0-0.07-0.01-0.13-0.01-0.2c0.13-0.2,0.25-0.4,0.38-0.59
		C327.38,329.38,327.25,329.65,326.96,329.83z"/>
	<path class="st32" d="M255.88,381.43c-1.82,0.42-3.65,0.51-5.47,0c-0.78-0.21-1.5-0.53-2.06-1.13c-0.71-0.57-1.06-1.41-1.54-2.14
		c-0.17-0.37-0.38-0.73-0.38-1.16c-0.18-0.37-0.08-0.76-0.08-1.13c0-0.95,0.4-1.43,1.33-1.57c0.8-0.12,1.59-0.1,2.38,0.14
		c1.71,0.53,3.24,1.34,4.48,2.68c0.83,0.89,1.62,1.82,2.44,2.72c0.75,0.81,0.63,1.08-0.38,1.39
		C256.36,381.3,256.09,381.26,255.88,381.43z"/>
	<path class="st3" d="M255.88,381.43c0.07-0.06,0.14-0.13,0.22-0.17c0.37-0.22,1.09-0.04,1.15-0.49c0.06-0.47-0.49-0.85-0.84-1.22
		c-0.94-1-1.81-2.09-2.83-2.99c-1.41-1.24-3.09-2.04-5.02-2.07c-1.82-0.03-2.12,0.3-2.1,2.12c0,0.13-0.01,0.26-0.02,0.38
		c-0.62-1.62,0.36-3.65,2.08-4.4c2.13-0.93,4-0.21,5.82,0.83c1.92,1.09,3.09,2.95,4.58,4.48c0.38,0.39,0.72,0.82,1.1,1.21
		c0.34,0.36,0.4,0.66-0.1,0.89C258.61,380.62,257.36,381.36,255.88,381.43z"/>
	<path class="st32" d="M355.43,358.48c-1.41,1.19-2.96,1.87-4.86,1.37c-0.6-0.16-0.8-0.45-0.64-1.03c0.49-1.76,1.04-3.5,2.24-4.95
		c1.48-1.49,3.06-1.19,3.81,0.75C356.51,356,356.48,357.32,355.43,358.48z"/>
	<path class="st32" d="M282.24,349.43c-1.04,1.21-2.4,1.98-3.77,2.74c-0.14,0.08-0.32,0.19-0.41,0.01
		c-0.07-0.15-0.08-0.38-0.03-0.55c0.5-1.75,0.99-3.5,1.53-5.23c0.21-0.67,0.52-1.3,0.78-1.96c0.71-1.1,1.88-0.97,2.52,0.33
		c0.69,1.4,0.48,2.78-0.22,4.12C282.54,349.09,282.38,349.26,282.24,349.43z"/>
	<path class="st32" d="M263,351.96c-1.3,1.6-1.42,1.59-2.68-0.04c-1.17-1.52-1.38-3.18-0.78-4.97c0.72-0.98,1.18-1.14,2.28-0.76
		c1.77,0.6,2.52,2.08,2.04,3.97C263.7,350.82,263.39,351.41,263,351.96z"/>
	<path class="st33" d="M235.47,359.46c-1.2-0.46-1.97,0.53-2.9,0.91c-3.53,1.46-7.08,1.37-10.66,0.32
		c-5.26-1.54-9.7-4.46-13.79-8.03c-3.37-2.94-6.39-6.19-9.07-9.74c-2-2.65-3.8-5.44-5.43-8.35c-2.15-3.83-4-7.78-5.42-11.93
		c-0.53-1.56-1.27-3.08-1.27-4.79c0.5-0.02,0.28,0.42,0.34,0.62c0.34,1.07,0.74,2.13,1.01,3.23l0,0c1.03,2.94,2.16,5.85,3.59,8.62
		c0.73,1.41,1.38,2.87,2.25,4.21c1.54,2.77,3.35,5.37,5.14,7.97c1.42,1.79,2.73,3.66,4.43,5.2c2.93,3.25,6.18,6.14,9.85,8.53
		c2.72,1.77,5.6,3.21,8.76,4.06c3.5,0.94,6.95,1.04,10.34-0.46c0.44-0.2,0.85-0.44,1.27-0.68c0.33-0.19,0.64-0.27,0.99-0.1
		C235.14,359.1,235.35,359.21,235.47,359.46z"/>
	<path class="st34" d="M263,351.96c0.23-0.72,0.49-1.44,0.68-2.17c0.51-1.94-0.93-3.29-2.64-3.56c-0.6-0.09-1.06,0.35-1.5,0.72
		c0.35-1.32,1.15-2.26,2.41-2.76c1.88-0.74,3.95,0.75,3.71,2.75C265.43,348.91,264.61,350.67,263,351.96z"/>
	<path class="st35" d="M355.43,358.48c0.55-1.18,0.84-2.38,0.37-3.68c-0.44-1.23-1.49-2.18-3.04-1.22c-0.19,0.12-0.4,0.2-0.6,0.3
		c0.57-1.39,1.66-2.24,2.98-2.82c0.97-0.42,1.8-0.08,2.32,0.88c0.89,1.65,0.51,3.94-0.97,5.61
		C356.18,357.89,355.91,358.32,355.43,358.48z"/>
	<path class="st9" d="M282.24,349.43c0.49-1.31,1.06-2.61,0.6-4.07c-0.15-0.48-0.38-0.88-0.78-1.17c-0.66-0.48-1.23-0.4-1.72,0.26
		c0.33-1.06,0.94-1.95,1.79-2.64c0.83-0.68,2.19-0.1,2.59,1.07c0.27,0.81,0.27,1.61,0.06,2.44
		C284.36,346.96,283.63,348.39,282.24,349.43z"/>
	<path class="st36" d="M188.27,321.71c-0.69-1.2-0.8-2.6-1.35-3.85c-1.15-4.29-1.76-8.66-1.51-13.09c0.16-2.88,0.71-5.71,2.02-8.34
		c0.11-0.23,0.19-0.47,0.29-0.71c0.37-0.31,0.61-0.7,0.78-1.15c0.27-0.2,0.51-0.42,0.58-0.77c0.83-0.78,1.65-1.55,2.48-2.33
		c0.13,0,0.25,0,0.38-0.01c-3.44,2.77-5.21,6.42-5.8,10.75c-0.25,1.85-0.45,3.69-0.34,5.54c0.18,3.25,0.58,6.47,1.37,9.64
		C187.5,318.83,188.22,320.19,188.27,321.71z"/>
	<path class="st37" d="M234.88,359.08c-0.28,0.02-0.56,0-0.83,0.17c-3.39,2.03-7.01,2.32-10.82,1.46c-4.73-1.08-8.78-3.44-12.6-6.32
		c-2.36-1.78-4.46-3.84-6.52-5.95c-0.2-0.2-0.44-0.39-0.44-0.72c1.11,0.87,2,1.98,3.04,2.93c2.5,2.28,5.09,4.48,8,6.2
		c3.26,1.92,6.73,3.43,10.52,3.9c2.76,0.34,5.48-0.01,7.99-1.39C233.72,359.08,234.23,358.6,234.88,359.08z"/>
	<path class="st36" d="M194.04,334.62c-1.62-2.51-2.84-5.22-4.02-7.95c-0.7-1.61-1.42-3.22-1.76-4.96c0.67,0.98,0.9,2.14,1.34,3.21
		c0.93,2.23,1.84,4.48,3.06,6.58c0.51,0.88,0.92,1.82,1.38,2.73C194.15,334.36,194.15,334.49,194.04,334.62z"/>
	<path class="st38" d="M194.04,334.62c0-0.13,0-0.26,0-0.39c1.6,2.55,3.14,5.15,4.93,7.58c0.14,0.2,0.18,0.47,0.27,0.7
		c-1.61-1.81-2.84-3.87-4.1-5.92C194.75,335.96,194.27,335.35,194.04,334.62z"/>
	<path class="st22" d="M242,355.25c-0.22,0.56-0.44,1.1-1.04,1.38c-0.35,0.16-0.27,0.44-0.12,0.71c-0.27-0.07-0.56-0.11-0.81-0.23
		c-0.31-0.15-0.96-0.09-0.83-0.57c0.13-0.48,0.59-1.06,1.18-0.86c0.67,0.23,1-0.13,1.41-0.45
		C241.87,355.23,241.94,355.24,242,355.25z"/>
	<path class="st39" d="M246.81,378.16c0.62,0.64,1.06,1.4,1.54,2.14C247.44,379.87,247.11,379.02,246.81,378.16z"/>
	<path class="st40" d="M242.79,372.97c0.06-0.01,0.12-0.01,0.18-0.01c-0.03,0.42-0.11,0.82-0.39,1.15
		C242.5,373.7,242.7,373.35,242.79,372.97z"/>
	<path class="st41" d="M285.35,313.05c-1.77,0.97-3.68,1.48-5.65,1.73c-1.78,0.22-3.58,0.18-5.37,0.25
		c-0.98,0.04-1.37-0.23-1.14-1.22c0.03-0.12,0.02-0.26,0.02-0.38c0.21-1.29,0.1-2.6,0.18-3.9c0.05-0.79,0.17-1.59,0.12-2.39
		c-0.03-0.58,0.36-0.84,0.83-0.86c3.25-0.11,6.49-0.08,9.32,1.86c1.12,0.76,1.86,1.84,2.23,3.15
		C286.08,311.97,286.05,312.62,285.35,313.05z"/>
	<path class="st3" d="M285.35,313.05c0.46-0.58,0.48-1.21,0.23-1.89c-0.93-2.58-2.98-3.72-5.47-4.24c-1.81-0.38-3.66-0.47-5.52-0.43
		c-0.73,0.02-1,0.32-1,1.05c-0.02,1.75-0.12,3.51-0.19,5.26c-0.01,0.22,0.02,0.45-0.19,0.61c-0.11-2.76,0.1-5.5,0.4-8.24
		c0.06-0.52,0.28-0.75,0.84-0.82c2.76-0.34,5.49-0.2,8.2,0.41c1.88,0.43,3.42,1.4,4.44,3.1
		C288.24,309.83,287.53,311.97,285.35,313.05z"/>
	<path class="st41" d="M363.23,323.82c1.09-2.99,2.18-5.99,3.27-8.98c0.18-0.28,0.35-0.19,0.5,0.03c0.19,0.27,0.3,0.58,0.38,0.9
		c0.71,2.65,1.47,5.29,2.18,7.94c0.27,1,0.14,1.16-0.87,1.16c-1.68,0-3.36-0.2-5.04-0.17C362.88,324.72,363.09,324.25,363.23,323.82
		z"/>
	<path class="st3" d="M363.23,323.82c-0.06,0.55,0.07,0.84,0.73,0.81c1.62-0.06,3.24,0.03,4.86,0.15c0.52,0.04,0.77-0.09,0.6-0.68
		c-0.8-2.86-1.56-5.73-2.39-8.59c-0.07-0.23,0.02-0.78-0.54-0.68c0.16-0.98,0.78-1.8,0.98-2.77c0.15-0.26,0.19-0.56,0.4-0.94
		c0.51,0.91,0.64,1.85,0.9,2.74c0.95,3.41,1.88,6.82,2.85,10.23c0.18,0.64,0.07,0.86-0.64,0.87c-2.47,0.04-4.93-0.07-7.39-0.18
		C362.83,324.75,362.77,324.57,363.23,323.82z"/>
	<path class="st42" d="M368.77,313.86c-0.45-0.77-0.46-1.69-0.85-2.52c-0.21,0.25-0.2,0.57-0.45,0.73c-0.01-0.42,0.16-0.78,0.41-1.3
		C368.32,311.85,368.78,312.78,368.77,313.86z"/>
	<path class="st41" d="M311.93,323.65c-3.66,2.43-8.37,2.04-11.61-0.97c-2.89-2.68-3.69-7.31-1.87-10.79
		c0.82-1.56,2.17-2.34,3.83-2.77c2.88-0.75,5.55-0.36,7.98,1.32c2.49,1.72,3.86,4.14,4.03,7.18c0.02,0.32,0,0.64,0,0.96
		c0.03,1.7-0.37,3.24-1.63,4.47l0,0C312.43,323.25,312.17,323.44,311.93,323.65z"/>
	<path class="st3" d="M312.67,323.04c1.45-2.11,1.64-4.43,1.18-6.87c-0.64-3.37-3.68-6.33-7.11-6.99c-2.23-0.43-4.3-0.02-6.33,0.92
		c-0.86,0.4-1.34,1.16-1.97,1.78c0.85-1.88,2.26-3.23,4.06-4.15c3.64-1.85,8.11-1.17,10.81,1.62
		C317.31,313.46,316.69,319.9,312.67,323.04z"/>
	<path class="st3" d="M311.93,323.65c0.15-0.33,0.37-0.56,0.74-0.6C312.53,323.38,312.3,323.6,311.93,323.65z"/>
	<path class="st41" d="M257.8,320.18c-1.59,1.58-3.58,2.38-5.74,2.63c-1.47,0.17-2.98,0.56-4.48,0.07c-0.49-0.15-0.68-0.46-0.67-1
		c0.01-3.52,0.2-7.04,0.38-10.56c0.07-1.41,0.32-2.79,0.4-4.19c0.03-0.62,0.36-0.84,0.9-0.9c6.43-0.71,10.21,3.41,10.46,9.04
		C259.12,317.03,259.03,318.75,257.8,320.18z"/>
	<path class="st3" d="M257.96,319.95c0.77-3.44,1.38-6.78-0.81-9.92c-1-1.44-2.48-2.52-4.13-3.11c-1.04-0.37-4.17-1.14-5.08-0.15
		c-0.13,0.14-0.15,0.34-0.17,0.53c-0.48,4.62-0.72,9.27-0.73,13.92c0,0.53,0.16,1.07,0.22,1.55c-0.35-0.21-0.45-0.55-0.45-0.98
		c-0.01-4.77,0.22-9.55,0.71-14.3c0.33-3.23,3.02-3.88,5.9-3.27c2.71,0.58,5.2,2.34,6.46,4.83
		C261.51,312.28,261.1,317.68,257.96,319.95z"/>
	<path class="st41" d="M337.16,316.32c-0.67,0.34-1.38,0.52-2.13,0.58c-2.26,0.33-4.54,0.14-6.81,0.17
		c-0.48,0.01-0.68-0.26-0.7-0.73c-0.07-2.5,0.06-5,0.11-7.5c0.01-0.66,0.42-1.04,1.11-1.09c2.49-0.18,4.87,0.15,7.06,1.43
		c1.62,0.95,2.58,2.36,2.77,4.26C338.71,314.72,338.4,315.75,337.16,316.32z"/>
	<path class="st3" d="M337.16,316.32c1.79-1.78,1.45-4.82-0.81-6.44c-2.35-1.7-5.07-2.03-7.88-1.83c-0.53,0.04-0.71,0.46-0.72,0.88
		c-0.04,2.47-0.03,4.94-0.05,7.41c-0.01,0.59,0.39,0.56,0.79,0.56c2.18,0,4.36,0,6.55,0.01c-0.84,0.36-1.73,0.36-2.62,0.36
		c-1.31,0-2.63-0.03-3.94,0c-0.81,0.02-1.14-0.29-1.15-1.12c-0.03-3.01,0.14-6.01,0.39-9c0.05-0.66,0.46-1.01,1.01-1.12
		c3.37-0.65,6.65-0.49,9.55,1.56c1.58,1.12,2.24,2.83,1.92,4.74C339.89,314.12,338.92,315.56,337.16,316.32z"/>
</g>
</svg>
